<svg t="1586675015399" class="icon" viewBox="0 0 1024 1024" version="1.1" xmlns="http://www.w3.org/2000/svg" p-id="35384" width="200" height="200"><path d="M835.2 153.6L832 70.4c0-22.4-19.2-38.4-38.4-38.4H227.2C172.8 32 128 76.8 128 128v758.4C128 944 176 992 230.4 992h592c38.4 0 70.4-32 70.4-70.4V211.2c-3.2-28.8-25.6-57.6-57.6-57.6zM489.6 556.8H291.2c-22.4 0-38.4-16-38.4-38.4S268.8 480 291.2 480h198.4c22.4 0 38.4 16 38.4 38.4-3.2 22.4-19.2 38.4-38.4 38.4z m156.8-156.8H291.2c-22.4 0-38.4-16-38.4-38.4s16-38.4 38.4-38.4h355.2c22.4 0 38.4 16 38.4 38.4-3.2 22.4-19.2 38.4-38.4 38.4z m115.2-246.4H204.8V128c0-12.8 9.6-22.4 22.4-22.4h537.6v48h-3.2z" fill="#6B94FF" p-id="35385"></path><path d="M188.8 32h601.6c25.6 0 48 22.4 48 48v73.6H188.8C153.6 153.6 128 124.8 128 92.8 128 57.6 153.6 32 188.8 32z" fill="#C3D3FE" p-id="35386"></path></svg>