<svg t="1586676578609" class="icon" viewBox="0 0 1024 1024" version="1.1" xmlns="http://www.w3.org/2000/svg" p-id="171840" width="200" height="200"><path d="M78.757647 532.530196a455.278431 455.278431 0 0 0 910.556863 2.81098 455.278431 455.278431 0 0 0-910.556863-2.81098z" fill="#FFF3C0" p-id="171841"></path><path d="M747.018039 489.411765c18.672941-25.549804 72.934902-43.971765 45.176471-64.100392l-324.517647-183.215687c-27.055686-19.676863-64.702745-15.058824-83.375687 10.039216L326.27451 331.996863a24.395294 24.395294 0 0 0 0.401568 26.603921s37.044706 38.751373 7.780393 79.309804" fill="#4DCBFC" p-id="171842"></path><path d="M806.500392 406.588235l-1.003921-1.003921-324.718432-183.567059c-37.546667-26.704314-89.298824-19.32549-115.45098 16.213333L307.300392 317.891765a47.636078 47.636078 0 0 0 0.351373 54.211764l1.003921 1.505883 1.505883 1.505882a56.821961 56.821961 0 0 1 10.49098 17.618824 32.627451 32.627451 0 0 1-4.618039 31.623529l38.048627 28.210196a60.235294 60.235294 0 0 0 6.575687-10.541176l-25.6-3.112157c29.716078-40.558431-7.780392-79.309804-7.780393-79.309804a23.441569 23.441569 0 0 1-0.401568-26.603922l57.926274-79.661176c18.672941-25.549804 56.32-30.117647 83.375687-10.039216L793.098039 426.666667c27.055686 19.676863-26.704314 38.550588-45.17647 64.100392l19.024313 14.105098a131.814902 131.814902 0 0 1 22.638432-19.526275c17.116863-13.000784 35.137255-26.001569 35.137255-47.083921a41.261176 41.261176 0 0 0-18.221177-31.673726z" fill="#5E482A" p-id="171843"></path><path d="M768 449.807059s58.327843-39.454118 25.750588-47.585883l-459.796078-107.369411C301.176471 286.72 268.699608 305.192157 261.019608 335.811765l-24.345098 96.276078a23.893333 23.893333 0 0 0 10.039215 24.144314s48.64 22.236863 36.442353 70.876863" fill="#FFFFFF" p-id="171844"></path><path d="M829.088627 407.843137C828.235294 401.568627 823.215686 386.509804 802.032941 381.138824L342.086275 274.321569a83.07451 83.07451 0 0 0-101.596863 58.428235l-24.395294 96.276078a47.736471 47.736471 0 0 0 20.429804 50.196079l1.505882 1.003921 1.505882 1.003922a59.683137 59.683137 0 0 1 15.058824 11.595294 32.878431 32.878431 0 0 1 7.93098 32.12549l46.130196 11.695687a71.077647 71.077647 0 0 0 2.058039-10.039216l-25.098039 3.915294c12.197647-48.64-36.442353-70.876863-36.442353-70.876863a23.391373 23.391373 0 0 1-10.039215-24.144314l24.44549-96.175686C271.058824 308.756078 304.38902 290.283922 336.313725 298.415686l459.946667 107.319216c32.627451 8.131765-25.750588 47.585882-25.750588 47.585882l13.502745 19.626667a256 256 0 0 0 21.132549-16.51451c24.847059-23.993725 25.399216-39.052549 23.943529-48.589804z" fill="#5E482A" p-id="171845"></path><path d="M839.278431 509.741176v-74.290196a61.088627 61.088627 0 0 0-61.540392-60.235294L255.447843 373.458824a61.088627 61.088627 0 0 0-61.941961 60.235294v73.788235a15.510588 15.510588 0 0 0 11.494902 15.058823c38.600784 11.143529 58.127059 32.828235 58.026667 64.953726s-19.727059 53.659608-58.428235 64.552157a16.112941 16.112941 0 0 0-11.595294 15.058823v71.780393a61.088627 61.088627 0 0 0 61.540392 60.235294l522.541176 1.606274a61.088627 61.088627 0 0 0 61.941961-60.235294v-72.282353a15.661176 15.661176 0 0 0-10.992941-15.058823c-39.102745-12.147451-58.127059-33.832157-58.026667-64.451765s19.727059-52.153725 58.428235-64.050196a15.661176 15.661176 0 0 0 11.093334-15.058824z" fill="#FFCF06" p-id="171846"></path><path d="M828.235294 524.8a15.661176 15.661176 0 0 0 11.093333-15.058824v-74.290196a61.088627 61.088627 0 0 0-61.540392-60.235294L255.447843 373.458824a61.088627 61.088627 0 0 0-61.941961 60.235294v73.788235a15.510588 15.510588 0 0 0 11.494902 15.058823c38.600784 11.143529 58.127059 32.828235 58.026667 64.953726s-19.727059 53.659608-58.428235 64.552157a16.112941 16.112941 0 0 0-11.595294 15.058823v71.780393a61.088627 61.088627 0 0 0 61.540392 60.235294l522.541176 1.606274a61.088627 61.088627 0 0 0 61.941961-60.235294v-72.282353a15.661176 15.661176 0 0 0-10.992941-15.058823c-39.102745-12.147451-58.127059-33.832157-58.026667-64.451765s19.727059-52.153725 58.428235-64.050196z m-82.020392 64c0 28.109804 11.846275 65.254902 69.521569 85.333333v66.258824a37.496471 37.496471 0 0 1-38.249412 36.542745l-523.043137-1.606275a37.195294 37.195294 0 0 1-38.048628-36.743529v-65.756863a108.624314 108.624314 0 0 0 48.790588-29.465098A81.66902 81.66902 0 0 0 286.117647 587.294118a82.572549 82.572549 0 0 0-20.429804-56.269804 111.435294 111.435294 0 0 0-48.589804-29.766275v-67.764706a37.496471 37.496471 0 0 1 38.249412-36.542745l522.541176 1.606275a37.496471 37.496471 0 0 1 38.048628 36.743529v68.266667c-57.47451 19.978039-69.672157 57.123137-69.722353 85.232941z" fill="#5E482A" p-id="171847"></path><path d="M513.455686 34.384314A479.87451 479.87451 0 1 1 32.12549 513.807059a480.175686 480.175686 0 0 1 481.330196-479.422745m0-22.086275a497.242353 497.242353 0 0 0-355.739608 146.522353 501.709804 501.709804 0 1 0 355.84-146.522353z" fill="#5E482A" p-id="171848"></path><path d="M526.607059 618.616471h49.694117a8.83451 8.83451 0 0 1 10.039216 10.039215 8.683922 8.683922 0 0 1-10.039216 9.687843h-49.694117v42.11451a18.020392 18.020392 0 0 1-2.007843 10.039216c-1.305098 1.706667-4.316863 2.56-8.934902 2.56a11.896471 11.896471 0 0 1-8.633726-2.610196 14.607059 14.607059 0 0 1-2.56-10.039216v-42.11451h-49.091764a8.683922 8.683922 0 0 1-10.039216-9.738039c0-6.676078 3.162353-10.039216 9.436863-10.039216h49.694117v-29.364705h-49.091764a8.683922 8.683922 0 0 1-10.039216-9.73804q0-10.039216 9.436863-10.039215h36.34196l-21.534117-35.538824-21.584314-35.538823q-5.421176-10.039216 2.158431-15.058824a10.039216 10.039216 0 0 1 7.278432-2.108235c2.208627 0.451765 4.417255 2.459608 6.676078 6.123921l49.141961 82.271373h5.772549l24.043922-40.558431L567.215686 488.407843c2.861176-4.618039 5.37098-6.876863 7.579608-6.77647a15.711373 15.711373 0 0 1 7.278431 2.610196 8.533333 8.533333 0 0 1 4.517648 6.073725 15.661176 15.661176 0 0 1-3.061961 8.784314l-42.666667 70.27451h35.488628a8.83451 8.83451 0 0 1 10.039215 10.039215 8.683922 8.683922 0 0 1-10.039215 9.687843h-49.694118z" fill="#FFFFFF" p-id="171849"></path><path d="M456.432941 481.02902h1.204706c2.208627 0.451765 4.417255 2.459608 6.676078 6.123921l49.141961 82.271373h5.772549l24.043922-40.558432L567.215686 488.407843c2.760784-4.517647 5.019608-6.776471 7.42902-6.77647a15.711373 15.711373 0 0 1 7.278431 2.610196 8.533333 8.533333 0 0 1 4.517647 6.073725 15.661176 15.661176 0 0 1-3.06196 8.784314l-42.666667 70.27451h35.488627a8.83451 8.83451 0 0 1 10.039216 10.039215 8.683922 8.683922 0 0 1-10.039216 9.687843h-49.694117v29.364706h49.694117a8.83451 8.83451 0 0 1 10.039216 10.039216 8.683922 8.683922 0 0 1-10.039216 9.687843h-49.694117v42.11451a18.020392 18.020392 0 0 1-2.007843 10.039216c-1.305098 1.706667-4.266667 2.56-8.83451 2.56a11.896471 11.896471 0 0 1-8.633726-2.610196 14.607059 14.607059 0 0 1-2.56-10.039216v-42.11451h-49.091764a8.683922 8.683922 0 0 1-10.039216-9.738039c0-6.625882 3.112157-10.039216 9.386667-10.039216h49.694117v-29.364706h-49.091765a8.683922 8.683922 0 0 1-10.039215-9.738039q0-10.039216 9.386666-10.039216h36.341961l-21.534117-35.538823-21.584314-35.538824q-5.421176-10.039216 2.158431-15.058823a10.892549 10.892549 0 0 1 6.073726-2.208628m0-24.596078a35.137255 35.137255 0 0 0-20.078432 6.52549c-12.850196 8.683922-20.981961 26.704314-10.039215 47.134118l0.602353 1.054117 7.479215 12.29804 13.301961 21.88549a32.677647 32.677647 0 0 0-27.00549 33.882353 33.731765 33.731765 0 0 0 9.286274 24.345098 35.137255 35.137255 0 0 0-9.436862 24.746666 33.631373 33.631373 0 0 0 10.039215 25.09804A34.283922 34.283922 0 0 0 455.278431 662.588235h24.495687v17.518432A38.14902 38.14902 0 0 0 489.411765 707.764706a35.137255 35.137255 0 0 0 26.001568 10.039216 33.781961 33.781961 0 0 0 28.511373-12.147451 40.608627 40.608627 0 0 0 7.077647-25.09804v-17.518431h25.098039a32.978824 32.978824 0 0 0 34.68549-34.183529 34.183529 34.183529 0 0 0-9.33647-24.646275 34.133333 34.133333 0 0 0 9.487059-24.44549 32.778039 32.778039 0 0 0-26.905098-33.982745l20.580392-33.982745a38.349804 38.349804 0 0 0 6.475294-23.742745 32.476863 32.476863 0 0 0-15.661177-24.495687l-0.50196-0.301176a40.156863 40.156863 0 0 0-18.873726-6.174118h-1.40549c-11.294118 0-20.881569 6.224314-28.410981 18.522353v0.301177l-24.094117 40.608627-5.822745 10.039216-30.920785-51.952941A34.735686 34.735686 0 0 0 462.305882 456.784314H461.803922a31.623529 31.623529 0 0 0-5.571765-0.501961z" fill="#5E482A" p-id="171850"></path></svg>